<svg version="1.1" id="Layer_1" xmlns="http://www.w3.org/2000/svg" xmlns:xlink="http://www.w3.org/1999/xlink" x="0px" y="0px"
	 width="100%" viewBox="0 0 500 500" enable-background="new 0 0 500 500" xml:space="preserve">
<path fill="#FFFFFF" opacity="1.000000" stroke="none" 
	d="
M271.000000,501.000000 
	C180.666687,501.000000 90.833374,501.000000 1.000048,501.000000 
	C1.000032,334.333405 1.000032,167.666794 1.000016,1.000138 
	C167.666565,1.000092 334.333130,1.000092 500.999756,1.000046 
	C500.999847,167.666519 500.999847,334.333038 500.999939,500.999786 
	C424.500000,501.000000 348.000000,501.000000 271.000000,501.000000 
M147.107132,209.972153 
	C141.116837,210.216324 135.126526,210.460495 128.391769,210.378067 
	C125.830345,211.499298 122.233566,211.918747 120.906502,213.876617 
	C117.289810,219.212494 124.140274,221.446686 125.851006,225.714035 
	C122.256409,225.893188 119.151146,226.047943 115.186256,226.063232 
	C111.361320,226.029984 107.326073,225.518738 105.095276,229.741898 
	C103.106079,233.507675 106.140549,235.517151 108.073463,237.905411 
	C108.223526,238.090820 108.093208,238.503128 108.093208,239.394073 
	C104.402634,239.394073 100.654869,238.885208 97.149300,239.586731 
	C95.077942,240.001236 92.826309,242.010147 91.740204,243.919083 
	C91.086357,245.068298 91.961235,247.935486 93.098282,249.117996 
	C100.584229,256.903320 108.328300,264.440430 116.278358,272.651917 
	C121.167061,277.477814 126.055771,282.303680 131.235413,287.725372 
	C132.751602,289.234039 134.041107,291.153992 135.841797,292.146423 
	C138.052994,293.365082 141.221344,295.028503 143.000397,294.255219 
	C144.897003,293.430878 146.250778,290.109253 146.758240,287.653992 
	C147.389053,284.601868 146.909500,281.320221 146.909500,277.710114 
	C149.516251,279.371277 151.278687,280.494415 153.750595,281.869690 
	C158.175674,281.383148 160.060196,278.758301 160.035889,274.471832 
	C160.010056,269.917755 160.030075,265.363373 160.030075,259.557343 
	C163.167282,262.112396 165.039398,263.637115 167.259659,265.679565 
	C172.768463,266.465057 175.325226,264.655792 175.509109,259.107422 
	C175.993149,244.504044 176.296799,229.893494 176.526413,215.283508 
	C176.606186,210.207428 175.019394,209.176086 168.198090,209.470673 
	C161.477142,209.695206 154.756180,209.919724 147.107132,209.972153 
M400.238129,233.859726 
	C402.855682,233.859726 405.473236,233.859726 408.283691,233.859726 
	C408.663513,232.129761 408.986816,230.693420 409.293365,229.253525 
	C410.182770,225.076080 410.966125,220.627731 406.648590,218.010712 
	C402.174774,215.298965 397.241211,215.959717 392.957062,218.701675 
	C390.973328,219.971329 389.244141,222.112228 388.172180,224.246231 
	C384.629425,231.298874 385.797455,237.757919 391.465881,243.333664 
	C394.829071,246.641846 396.435547,250.465164 394.283356,255.004166 
	C393.857239,255.902878 392.287811,256.259460 391.245636,256.866058 
	C390.914764,255.850876 390.243774,254.808060 390.323547,253.826233 
	C390.492096,251.751617 391.053070,249.708878 391.500641,247.408524 
	C388.219574,247.408524 385.466400,247.408524 382.356415,247.408524 
	C381.874573,250.143448 381.181335,252.706924 381.012115,255.304535 
	C380.564941,262.169464 383.490173,265.179962 390.256348,265.265289 
	C395.694733,265.333832 400.069153,263.382080 402.635864,258.455017 
	C405.736023,252.504028 406.394012,246.418549 402.494324,240.495697 
	C401.132141,238.426804 399.508667,236.529953 398.728119,234.124802 
	C398.957184,233.962891 399.186279,233.800995 400.238129,233.859726 
M298.794739,262.355774 
	C300.045044,256.845245 301.325562,251.341385 302.538147,245.822586 
	C304.106232,238.685974 305.956940,231.588226 307.043732,224.376938 
	C307.819855,219.227219 305.110413,216.358078 300.484161,216.499237 
	C295.081512,216.664062 289.687500,217.112442 283.899628,217.461304 
	C280.344299,232.911942 276.717407,248.673538 273.035492,264.674347 
	C276.577087,264.674347 279.537018,264.674347 282.750793,264.674347 
	C285.222961,253.899521 287.624054,243.220749 290.155945,232.573074 
	C290.685394,230.346497 291.456421,228.093155 292.604614,226.139191 
	C293.066040,225.353989 294.843292,225.342010 296.021667,224.978088 
	C296.318085,225.999695 296.961548,227.064850 296.839905,228.034012 
	C296.572479,230.165131 295.905670,232.244812 295.424316,234.350616 
	C293.140198,244.343369 290.863586,254.337814 288.250641,265.794708 
	C292.423859,264.726257 295.488373,263.941650 298.794739,262.355774 
M368.873810,234.313477 
	C355.513031,239.114639 350.536346,245.695358 351.054077,257.881104 
	C351.231323,262.052673 352.827026,265.028534 357.510681,265.095520 
	C362.853729,265.171936 368.198700,265.113159 373.548279,265.113159 
	C375.260162,257.612823 376.865997,250.831329 378.344757,244.022232 
	C379.647430,238.023926 381.265198,232.042908 381.905334,225.965942 
	C382.569733,219.658005 379.501526,216.795639 373.171356,216.484848 
	C364.050690,216.037048 358.753082,221.321640 357.147583,232.613159 
	C360.225586,232.613159 363.276459,232.613159 366.126923,232.613159 
	C367.952271,229.769745 366.572418,224.978165 373.068787,224.803070 
	C371.780914,228.288345 370.714783,231.173508 368.873810,234.313477 
M267.456482,258.857239 
	C268.938934,254.711929 270.421387,250.566620 272.069427,245.958252 
	C268.138336,245.958252 265.210266,245.958252 262.133362,245.958252 
	C261.324615,248.920517 260.758881,251.880280 259.644867,254.616852 
	C259.224915,255.648514 257.535797,256.163544 256.425262,256.914062 
	C256.074677,255.782501 255.309143,254.594925 255.452896,253.530090 
	C255.852219,250.571960 256.377747,247.574356 257.380859,244.781815 
	C257.785858,243.654343 259.509766,242.376572 260.723267,242.278503 
	C264.646851,241.961365 268.612183,242.160187 272.642548,242.160187 
	C273.622986,237.626236 274.527222,233.584915 275.365234,229.529907 
	C276.197754,225.501404 276.875549,220.548264 273.043121,218.613098 
	C269.609833,216.879471 264.661285,216.870865 260.762604,217.764648 
	C257.969482,218.404999 254.358505,221.382019 253.613037,224.022507 
	C250.473480,235.142944 248.006042,246.478470 245.875214,257.844513 
	C245.139526,261.768799 248.148682,264.383179 252.073074,264.962158 
	C257.975769,265.833008 263.412933,264.990387 267.456482,258.857239 
M420.279480,244.631165 
	C421.624573,243.807343 422.917511,242.398468 424.324921,242.272949 
	C428.063782,241.939468 431.852051,242.159698 435.649017,242.159698 
	C436.644318,237.550339 437.555847,233.512253 438.380829,229.456543 
	C439.199310,225.432663 439.856689,220.485229 435.998047,218.573929 
	C432.549988,216.866028 427.525940,216.730194 423.744537,217.812576 
	C420.702484,218.683365 417.027405,221.984421 416.153534,224.949875 
	C413.074005,235.400024 410.667267,246.100388 408.852844,256.848907 
	C407.979309,262.023621 411.239227,264.716949 416.541809,265.164551 
	C427.134918,266.058716 434.029388,258.458588 433.899719,245.899536 
	C431.093994,245.899536 428.283112,245.899536 425.188873,245.899536 
	C424.436157,248.662018 423.862915,251.604248 422.776611,254.342941 
	C422.337433,255.450256 420.777679,256.113098 419.727844,256.978180 
	C419.290985,255.765228 418.394897,254.506516 418.510254,253.348587 
	C418.772156,250.720367 419.531738,248.141739 420.279480,244.631165 
M209.408569,256.058563 
	C207.646606,256.058563 205.884644,256.058563 203.703964,256.058563 
	C205.019775,250.493530 206.194824,245.523834 207.429245,240.303055 
	C210.678329,240.303055 213.631302,240.303055 216.722855,240.303055 
	C217.381271,237.471420 217.972778,234.927612 218.655762,231.990295 
	C215.542740,231.990295 212.748581,231.990295 209.396271,231.990295 
	C210.485458,227.087982 211.477295,222.623871 212.516129,217.948273 
	C216.024200,217.794739 219.272522,217.652557 222.554291,217.508926 
	C223.195328,214.549744 223.751587,211.982010 224.333557,209.295471 
	C217.608734,209.295471 211.204910,209.295471 204.661636,209.295471 
	C200.393280,227.836105 196.185226,246.114761 191.917114,264.654297 
	C198.732956,264.654297 205.195267,264.654297 211.914917,264.654297 
	C212.573792,261.965607 213.240570,259.244690 213.959915,256.309204 
	C212.581619,256.215027 211.437210,256.136810 209.408569,256.058563 
M338.983856,241.025253 
	C339.745453,240.799744 340.499298,240.410309 341.269806,240.374039 
	C349.099915,240.005615 349.100677,240.021744 349.662018,231.938232 
	C346.849823,231.938232 344.054077,231.938232 340.799011,231.938232 
	C341.993408,226.934937 343.091187,222.336304 344.209412,217.651947 
	C347.733063,217.651947 350.703278,217.651947 353.899017,217.651947 
	C354.590424,214.794724 355.242523,212.099869 355.945740,209.193909 
	C349.164215,209.193909 342.716492,209.193909 336.168274,209.193909 
	C331.919312,227.729538 327.710846,246.088379 323.492889,264.488586 
	C330.731018,264.488586 337.140808,264.488586 343.635620,264.488586 
	C344.212433,261.607269 344.723297,259.055298 345.348022,255.934677 
	C341.805695,255.934677 338.748383,255.934677 335.289246,255.934677 
	C336.461517,250.853317 337.504272,246.333405 338.983856,241.025253 
M236.344742,232.785599 
	C235.389679,235.563141 234.434616,238.340698 233.479553,241.118256 
	C233.116638,240.996140 232.753723,240.874023 232.390808,240.751907 
	C233.276779,232.979904 234.162766,225.207901 235.068954,217.258652 
	C231.762833,217.258652 228.884399,217.258652 225.753082,217.258652 
	C224.395462,233.189896 223.059189,248.870728 221.697800,264.846405 
	C225.157104,264.846405 227.975128,265.016846 230.753555,264.759521 
	C231.812408,264.661438 233.363068,263.805115 233.703064,262.916748 
	C239.501022,247.768753 245.143875,232.561417 250.854065,217.278366 
	C241.780701,216.532486 241.773941,216.530243 239.129593,224.488083 
	C238.292374,227.007599 237.501846,229.542603 236.344742,232.785599 
M324.297058,225.572708 
	C329.915161,226.108307 328.528259,221.370117 329.755585,218.384109 
	C328.297089,218.081940 326.945892,217.802017 325.554443,217.513748 
	C326.138214,214.612442 326.658173,212.028336 327.218536,209.243378 
	C323.908875,209.243378 320.835602,209.243378 317.764282,209.243378 
	C316.937317,212.179169 316.530487,216.989182 315.365326,217.180496 
	C310.168060,218.033875 311.451385,221.908127 310.292267,224.719131 
	C311.675262,225.283035 312.674805,225.690598 313.699615,226.108459 
	C311.634399,235.152344 309.680450,243.896774 307.635193,252.619812 
	C304.888336,264.334930 305.662720,265.331909 317.638733,265.032593 
	C318.093933,265.021240 318.543854,264.796844 319.210541,264.612427 
	C319.707092,262.379761 320.205994,260.136383 320.727448,257.791687 
	C319.254028,257.329468 317.945038,256.918854 316.374054,256.426056 
	C318.853699,246.121109 321.259979,236.120956 324.297058,225.572708 
z"/>
<path fill="#070707" opacity="1.000000" stroke="none" 
	d="
M298.673828,262.756409 
	C295.488373,263.941650 292.423859,264.726257 288.250641,265.794708 
	C290.863586,254.337814 293.140198,244.343369 295.424316,234.350616 
	C295.905670,232.244812 296.572479,230.165131 296.839905,228.034012 
	C296.961548,227.064850 296.318085,225.999695 296.021667,224.978088 
	C294.843292,225.342010 293.066040,225.353989 292.604614,226.139191 
	C291.456421,228.093155 290.685394,230.346497 290.155945,232.573074 
	C287.624054,243.220749 285.222961,253.899521 282.750793,264.674347 
	C279.537018,264.674347 276.577087,264.674347 273.035492,264.674347 
	C276.717407,248.673538 280.344299,232.911942 283.899628,217.461304 
	C289.687500,217.112442 295.081512,216.664062 300.484161,216.499237 
	C305.110413,216.358078 307.819855,219.227219 307.043732,224.376938 
	C305.956940,231.588226 304.106232,238.685974 302.538147,245.822586 
	C301.325562,251.341385 300.045044,256.845245 298.673828,262.756409 
z"/>
<path fill="#070707" opacity="1.000000" stroke="none" 
	d="
M369.261230,234.186066 
	C370.714783,231.173508 371.780914,228.288345 373.068787,224.803070 
	C366.572418,224.978165 367.952271,229.769745 366.126923,232.613159 
	C363.276459,232.613159 360.225586,232.613159 357.147583,232.613159 
	C358.753082,221.321640 364.050690,216.037048 373.171356,216.484848 
	C379.501526,216.795639 382.569733,219.658005 381.905334,225.965942 
	C381.265198,232.042908 379.647430,238.023926 378.344757,244.022232 
	C376.865997,250.831329 375.260162,257.612823 373.548279,265.113159 
	C368.198700,265.113159 362.853729,265.171936 357.510681,265.095520 
	C352.827026,265.028534 351.231323,262.052673 351.054077,257.881104 
	C350.536346,245.695358 355.513031,239.114639 369.261230,234.186066 
M368.687531,243.303360 
	C368.747040,242.528183 368.806549,241.753006 368.876190,240.846100 
	C363.180145,243.302048 360.252197,250.211517 362.229614,258.326172 
	C363.950409,256.169525 365.567841,254.878387 366.176392,253.217590 
	C367.249420,250.289001 367.706970,247.134888 368.687531,243.303360 
z"/>
<path fill="#070707" opacity="1.000000" stroke="none" 
	d="
M267.253906,259.165131 
	C263.412933,264.990387 257.975769,265.833008 252.073074,264.962158 
	C248.148682,264.383179 245.139526,261.768799 245.875214,257.844513 
	C248.006042,246.478470 250.473480,235.142944 253.613037,224.022507 
	C254.358505,221.382019 257.969482,218.404999 260.762604,217.764648 
	C264.661285,216.870865 269.609833,216.879471 273.043121,218.613098 
	C276.875549,220.548264 276.197754,225.501404 275.365234,229.529907 
	C274.527222,233.584915 273.622986,237.626236 272.642548,242.160187 
	C268.612183,242.160187 264.646851,241.961365 260.723267,242.278503 
	C259.509766,242.376572 257.785858,243.654343 257.380859,244.781815 
	C256.377747,247.574356 255.852219,250.571960 255.452896,253.530090 
	C255.309143,254.594925 256.074677,255.782501 256.425262,256.914062 
	C257.535797,256.163544 259.224915,255.648514 259.644867,254.616852 
	C260.758881,251.880280 261.324615,248.920517 262.133362,245.958252 
	C265.210266,245.958252 268.138336,245.958252 272.069427,245.958252 
	C270.421387,250.566620 268.938934,254.711929 267.253906,259.165131 
M261.911835,226.610657 
	C261.059937,229.549072 260.208008,232.487488 259.276855,235.699249 
	C261.333008,235.699249 262.752258,235.699249 264.543793,235.699249 
	C265.158173,232.030350 265.744385,228.529648 266.549194,223.723694 
	C264.352417,224.874908 263.316010,225.418030 261.911835,226.610657 
z"/>
<path fill="#070707" opacity="1.000000" stroke="none" 
	d="
M420.184235,245.087051 
	C419.531738,248.141739 418.772156,250.720367 418.510254,253.348587 
	C418.394897,254.506516 419.290985,255.765228 419.727844,256.978180 
	C420.777679,256.113098 422.337433,255.450256 422.776611,254.342941 
	C423.862915,251.604248 424.436157,248.662018 425.188873,245.899536 
	C428.283112,245.899536 431.093994,245.899536 433.899719,245.899536 
	C434.029388,258.458588 427.134918,266.058716 416.541809,265.164551 
	C411.239227,264.716949 407.979309,262.023621 408.852844,256.848907 
	C410.667267,246.100388 413.074005,235.400024 416.153534,224.949875 
	C417.027405,221.984421 420.702484,218.683365 423.744537,217.812576 
	C427.525940,216.730194 432.549988,216.866028 435.998047,218.573929 
	C439.856689,220.485229 439.199310,225.432663 438.380829,229.456543 
	C437.555847,233.512253 436.644318,237.550339 435.649017,242.159698 
	C431.852051,242.159698 428.063782,241.939468 424.324921,242.272949 
	C422.917511,242.398468 421.624573,243.807343 420.184235,245.087051 
M429.047150,227.744400 
	C428.779388,226.720932 428.511627,225.697464 428.243866,224.673981 
	C427.167175,225.259308 425.479706,225.597977 425.125549,226.475052 
	C423.946259,229.395309 423.245575,232.508804 422.344269,235.607285 
	C429.721802,237.118286 427.511383,231.341583 429.047150,227.744400 
z"/>
<path fill="#070707" opacity="1.000000" stroke="none" 
	d="
M398.004517,234.554535 
	C399.508667,236.529953 401.132141,238.426804 402.494324,240.495697 
	C406.394012,246.418549 405.736023,252.504028 402.635864,258.455017 
	C400.069153,263.382080 395.694733,265.333832 390.256348,265.265289 
	C383.490173,265.179962 380.564941,262.169464 381.012115,255.304535 
	C381.181335,252.706924 381.874573,250.143448 382.356415,247.408524 
	C385.466400,247.408524 388.219574,247.408524 391.500641,247.408524 
	C391.053070,249.708878 390.492096,251.751617 390.323547,253.826233 
	C390.243774,254.808060 390.914764,255.850876 391.245636,256.866028 
	C392.287811,256.259460 393.857239,255.902878 394.283356,255.004166 
	C396.435547,250.465164 394.829071,246.641846 391.465881,243.333664 
	C385.797455,237.757919 384.629425,231.298874 388.172180,224.246231 
	C389.244141,222.112228 390.973328,219.971329 392.957062,218.701675 
	C397.241211,215.959717 402.174774,215.298965 406.648590,218.010712 
	C410.966125,220.627731 410.182770,225.076080 409.293365,229.253525 
	C408.986816,230.693420 408.663513,232.129761 408.283691,233.859726 
	C405.473236,233.859726 402.855682,233.859726 399.990723,233.397400 
	C400.143219,230.431335 400.543152,227.927597 400.943085,225.423859 
	C400.584717,225.156189 400.226349,224.888535 399.867981,224.620880 
	C398.733276,225.396378 396.626617,226.190414 396.640991,226.943985 
	C396.689545,229.488586 397.490967,232.018829 398.004517,234.554535 
z"/>
<path fill="#070707" opacity="1.000000" stroke="none" 
	d="
M209.850677,256.058594 
	C211.437210,256.136810 212.581619,256.215027 213.959915,256.309204 
	C213.240570,259.244690 212.573792,261.965607 211.914917,264.654297 
	C205.195267,264.654297 198.732956,264.654297 191.917114,264.654297 
	C196.185226,246.114761 200.393280,227.836105 204.661636,209.295471 
	C211.204910,209.295471 217.608734,209.295471 224.333557,209.295471 
	C223.751587,211.982010 223.195328,214.549744 222.554291,217.508926 
	C219.272522,217.652557 216.024200,217.794739 212.516129,217.948273 
	C211.477295,222.623871 210.485458,227.087982 209.396271,231.990295 
	C212.748581,231.990295 215.542740,231.990295 218.655762,231.990295 
	C217.972778,234.927612 217.381271,237.471420 216.722855,240.303055 
	C213.631302,240.303055 210.678329,240.303055 207.429245,240.303055 
	C206.194824,245.523834 205.019775,250.493530 203.703964,256.058563 
	C205.884644,256.058563 207.646606,256.058563 209.850677,256.058594 
z"/>
<path fill="#091F5E" opacity="1.000000" stroke="none" 
	d="
M338.765442,241.419373 
	C337.504272,246.333405 336.461517,250.853317 335.289246,255.934677 
	C338.748383,255.934677 341.805695,255.934677 345.348022,255.934677 
	C344.723297,259.055298 344.212433,261.607269 343.635620,264.488586 
	C337.140808,264.488586 330.731018,264.488586 323.492889,264.488586 
	C327.710846,246.088379 331.919312,227.729538 336.168274,209.193909 
	C342.716492,209.193909 349.164215,209.193909 355.945740,209.193909 
	C355.242523,212.099869 354.590424,214.794724 353.899017,217.651947 
	C350.703278,217.651947 347.733063,217.651947 344.209412,217.651947 
	C343.091187,222.336304 341.993408,226.934937 340.799011,231.938232 
	C344.054077,231.938232 346.849823,231.938232 349.662018,231.938232 
	C349.100677,240.021744 349.099915,240.005615 341.269806,240.374039 
	C340.499298,240.410309 339.745453,240.799744 338.765442,241.419373 
z"/>
<path fill="#070707" opacity="1.000000" stroke="none" 
	d="
M236.517349,232.428055 
	C237.501846,229.542603 238.292374,227.007599 239.129593,224.488083 
	C241.773941,216.530243 241.780701,216.532486 250.854065,217.278366 
	C245.143875,232.561417 239.501022,247.768753 233.703064,262.916748 
	C233.363068,263.805115 231.812408,264.661438 230.753555,264.759521 
	C227.975128,265.016846 225.157104,264.846405 221.697800,264.846405 
	C223.059189,248.870728 224.395462,233.189896 225.753082,217.258652 
	C228.884399,217.258652 231.762833,217.258652 235.068954,217.258652 
	C234.162766,225.207901 233.276779,232.979904 232.390808,240.751907 
	C232.753723,240.874023 233.116638,240.996140 233.479553,241.118256 
	C234.434616,238.340698 235.389679,235.563141 236.517349,232.428055 
z"/>
<path fill="#2C6E9B" opacity="1.000000" stroke="none" 
	d="
M153.041107,281.617523 
	C151.278687,280.494415 149.516251,279.371277 146.909500,277.710114 
	C146.909500,281.320221 147.389053,284.601868 146.758240,287.653992 
	C146.250778,290.109253 144.897003,293.430878 143.000397,294.255219 
	C141.221344,295.028503 138.052994,293.365082 135.841797,292.146423 
	C134.041107,291.153992 132.751602,289.234039 131.119293,287.004608 
	C131.366180,284.370178 131.729172,282.456543 132.380005,280.745117 
	C135.195786,283.348541 137.723724,285.749756 140.845093,288.714661 
	C140.939865,286.816681 140.906937,286.010559 141.030319,285.229156 
	C142.476654,276.069519 141.008240,267.960388 132.982544,261.902649 
	C134.113434,260.364685 135.090729,259.163147 136.352844,258.145355 
	C137.801361,259.977386 138.965073,261.625671 140.128769,263.273956 
	C140.638458,262.859711 141.148132,262.445465 141.657822,262.031250 
	C141.657822,256.094696 141.657822,250.158188 141.657822,243.942062 
	C138.926910,243.942062 136.476730,243.942062 134.010956,243.553955 
	C134.008118,241.616226 134.020859,240.066574 134.407166,238.465698 
	C135.988464,238.265015 137.196198,238.115570 138.947556,237.898865 
	C137.005035,235.753265 135.424164,234.007126 133.905350,231.876007 
	C134.324860,229.476624 134.682327,227.462219 135.505585,225.453918 
	C141.324234,225.381287 146.677078,225.302551 152.020294,225.618469 
	C152.017593,227.592346 152.024536,229.171539 151.588715,230.849182 
	C148.022980,230.947632 144.899994,230.947632 141.776993,230.947632 
	C141.079971,231.960922 140.382935,232.974213 139.685913,233.987503 
	C142.227524,235.384277 144.769135,236.781036 147.244934,238.663666 
	C147.524963,241.810257 147.870789,244.470963 148.134735,247.572845 
	C147.919769,251.140686 148.016129,254.297745 147.606506,257.387756 
	C146.713959,264.120544 146.798141,270.442627 153.005890,275.362701 
	C153.016968,277.727844 153.029037,279.672668 153.041107,281.617523 
z"/>
<path fill="#070707" opacity="1.000000" stroke="none" 
	d="
M323.981659,225.846756 
	C321.259979,236.120956 318.853699,246.121109 316.374054,256.426056 
	C317.945038,256.918854 319.254028,257.329468 320.727448,257.791687 
	C320.205994,260.136383 319.707092,262.379761 319.210541,264.612427 
	C318.543854,264.796844 318.093933,265.021240 317.638733,265.032593 
	C305.662720,265.331909 304.888336,264.334930 307.635193,252.619812 
	C309.680450,243.896774 311.634399,235.152344 313.699615,226.108459 
	C312.674805,225.690598 311.675262,225.283035 310.292267,224.719131 
	C311.451385,221.908127 310.168060,218.033875 315.365326,217.180496 
	C316.530487,216.989182 316.937317,212.179169 317.764282,209.243378 
	C320.835602,209.243378 323.908875,209.243378 327.218536,209.243378 
	C326.658173,212.028336 326.138214,214.612442 325.554443,217.513748 
	C326.945892,217.802017 328.297089,218.081940 329.755585,218.384109 
	C328.528259,221.370117 329.915161,226.108307 323.981659,225.846756 
z"/>
<path fill="#1A4B80" opacity="1.000000" stroke="none" 
	d="
M148.216599,247.131668 
	C147.870789,244.470963 147.524963,241.810257 147.543060,238.858109 
	C150.081375,240.642990 152.255798,242.719315 155.222946,245.552612 
	C155.222946,240.748352 155.032471,237.242020 155.284378,233.767746 
	C155.479126,231.081833 154.076309,230.715652 152.031464,230.750748 
	C152.024536,229.171539 152.017593,227.592346 152.445068,225.551758 
	C160.620941,224.919067 161.208191,225.492676 161.091782,233.109924 
	C161.061325,235.103287 161.280746,237.137726 160.959595,239.082993 
	C159.552811,247.603882 161.667572,254.658127 168.942978,260.023499 
	C168.183701,261.969238 167.547607,263.565552 166.911514,265.161835 
	C165.039398,263.637115 163.167282,262.112396 160.030075,259.557343 
	C160.030075,265.363373 160.010056,269.917755 160.035889,274.471832 
	C160.060196,278.758301 158.175674,281.383148 153.395844,281.743591 
	C153.029037,279.672668 153.016968,277.727844 153.417145,275.228394 
	C154.096283,270.552094 154.045883,266.379059 154.702240,262.320312 
	C155.764404,255.752335 153.762268,250.750565 148.216599,247.131668 
z"/>
<path fill="#4FBED9" opacity="1.000000" stroke="none" 
	d="
M115.988205,272.058472 
	C108.328300,264.440430 100.584229,256.903320 93.098282,249.117996 
	C91.961235,247.935486 91.086357,245.068298 91.740204,243.919083 
	C92.826309,242.010147 95.077942,240.001236 97.149300,239.586731 
	C100.654869,238.885208 104.402634,239.394073 108.093208,239.394073 
	C108.093208,238.503128 108.223526,238.090820 108.073463,237.905411 
	C106.140549,235.517151 103.106079,233.507675 105.095276,229.741898 
	C107.326073,225.518738 111.361320,226.029984 115.604599,226.527710 
	C116.031441,228.576599 116.039940,230.160995 115.678314,231.828506 
	C114.085487,231.998520 112.862793,232.085419 111.054428,232.213943 
	C113.350945,234.778397 115.193382,236.835800 116.880920,239.263062 
	C116.454865,241.496887 116.183716,243.360855 115.457123,245.137558 
	C109.501190,245.050308 104.000702,245.050308 97.617767,245.050308 
	C98.956795,246.649551 99.526215,247.424072 100.189659,248.107254 
	C106.250984,254.348663 112.328636,260.574219 118.086029,266.999817 
	C117.176422,268.816315 116.582314,270.437408 115.988205,272.058472 
z"/>
<path fill="#091F5E" opacity="1.000000" stroke="none" 
	d="
M167.085587,265.420715 
	C167.547607,263.565552 168.183701,261.969238 169.253265,259.774048 
	C170.082840,245.704483 170.530807,232.234833 170.788361,218.761520 
	C170.812057,217.521667 169.620987,216.258560 168.981689,214.629318 
	C169.012405,212.757156 169.055420,211.261917 169.098450,209.766693 
	C175.019394,209.176086 176.606186,210.207428 176.526413,215.283508 
	C176.296799,229.893494 175.993149,244.504044 175.509109,259.107422 
	C175.325226,264.655792 172.768463,266.465057 167.085587,265.420715 
z"/>
<path fill="#459EC0" opacity="1.000000" stroke="none" 
	d="
M116.048447,231.745392 
	C116.039940,230.160995 116.031441,228.576599 116.034409,226.597458 
	C119.151146,226.047943 122.256409,225.893188 125.851006,225.714035 
	C124.140274,221.446686 117.289810,219.212494 120.906502,213.876617 
	C122.233566,211.918747 125.830345,211.499298 128.740204,210.914062 
	C129.071976,212.976334 129.055328,214.502609 128.796570,216.232727 
	C128.396011,217.135056 127.863045,218.178726 128.138382,218.477448 
	C130.352814,220.880203 132.719574,223.142563 135.039780,225.447830 
	C134.682327,227.462219 134.324860,229.476624 133.460297,231.753189 
	C127.318283,231.925385 121.683357,231.835388 116.048447,231.745392 
z"/>
<path fill="#1A4B80" opacity="1.000000" stroke="none" 
	d="
M168.648270,209.618683 
	C169.055420,211.261917 169.012405,212.757156 168.600647,214.764984 
	C161.502838,215.431168 154.773804,215.584732 148.041763,215.338928 
	C148.037582,213.341125 148.036407,211.742676 148.035233,210.144241 
	C154.756180,209.919724 161.477142,209.695206 168.648270,209.618683 
z"/>
<path fill="#459EC0" opacity="1.000000" stroke="none" 
	d="
M116.133286,272.355194 
	C116.582314,270.437408 117.176422,268.816315 118.310364,267.227722 
	C123.264198,271.687744 127.678185,276.115295 132.092163,280.542877 
	C131.729172,282.456543 131.366180,284.370178 130.973831,286.706726 
	C126.055771,282.303680 121.167061,277.477814 116.133286,272.355194 
z"/>
<path fill="#2C6E9B" opacity="1.000000" stroke="none" 
	d="
M147.571182,210.058197 
	C148.036407,211.742676 148.037582,213.341125 147.579254,215.438171 
	C141.092712,215.967499 135.065704,215.998199 129.038681,216.028900 
	C129.055328,214.502609 129.071976,212.976334 129.112427,211.077347 
	C135.126526,210.460495 141.116837,210.216324 147.571182,210.058197 
z"/>
<path fill="#FAFBFC" opacity="1.000000" stroke="none" 
	d="
M368.554871,243.689270 
	C367.706970,247.134888 367.249420,250.289001 366.176392,253.217590 
	C365.567841,254.878387 363.950409,256.169525 362.229614,258.326172 
	C360.252197,250.211517 363.180145,243.302048 368.876190,240.846100 
	C368.806549,241.753006 368.747040,242.528183 368.554871,243.689270 
z"/>
<path fill="#FAFBFC" opacity="1.000000" stroke="none" 
	d="
M262.095703,226.285904 
	C263.316010,225.418030 264.352417,224.874908 266.549194,223.723694 
	C265.744385,228.529648 265.158173,232.030350 264.543793,235.699249 
	C262.752258,235.699249 261.333008,235.699249 259.276855,235.699249 
	C260.208008,232.487488 261.059937,229.549072 262.095703,226.285904 
z"/>
<path fill="#FAFBFC" opacity="1.000000" stroke="none" 
	d="
M429.008179,228.145386 
	C427.511383,231.341583 429.721802,237.118286 422.344269,235.607285 
	C423.245575,232.508804 423.946259,229.395309 425.125549,226.475052 
	C425.479706,225.597977 427.167175,225.259308 428.243866,224.673981 
	C428.511627,225.697464 428.779388,226.720932 429.008179,228.145386 
z"/>
<path fill="#FFFFFF" opacity="1.000000" stroke="none" 
	d="
M398.366333,234.339676 
	C397.490967,232.018829 396.689545,229.488586 396.640991,226.943985 
	C396.626617,226.190414 398.733276,225.396378 399.867981,224.620880 
	C400.226349,224.888535 400.584717,225.156189 400.943085,225.423859 
	C400.543152,227.927597 400.143219,230.431335 399.579346,233.287079 
	C399.186279,233.800995 398.957184,233.962891 398.366333,234.339676 
z"/>
<path fill="#FAFBFC" opacity="1.000000" stroke="none" 
	d="
M128.796570,216.232727 
	C135.065704,215.998199 141.092712,215.967499 147.582245,215.837555 
	C154.773804,215.584732 161.502838,215.431168 168.612946,215.141937 
	C169.620987,216.258560 170.812057,217.521667 170.788361,218.761520 
	C170.530807,232.234833 170.082840,245.704483 169.376465,259.424622 
	C161.667572,254.658127 159.552811,247.603882 160.959595,239.082993 
	C161.280746,237.137726 161.061325,235.103287 161.091782,233.109924 
	C161.208191,225.492676 160.620941,224.919067 152.454712,225.157104 
	C146.677078,225.302551 141.324234,225.381287 135.505585,225.453918 
	C132.719574,223.142563 130.352814,220.880203 128.138382,218.477448 
	C127.863045,218.178726 128.396011,217.135056 128.796570,216.232727 
z"/>
<path fill="#FAFBFC" opacity="1.000000" stroke="none" 
	d="
M132.380005,280.745117 
	C127.678185,276.115295 123.264198,271.687744 118.625870,267.032288 
	C112.328636,260.574219 106.250984,254.348663 100.189659,248.107254 
	C99.526215,247.424072 98.956795,246.649551 97.617767,245.050308 
	C104.000702,245.050308 109.501190,245.050308 115.613281,245.421143 
	C121.759560,251.274353 127.294243,256.756714 132.828918,262.239075 
	C141.008240,267.960388 142.476654,276.069519 141.030319,285.229156 
	C140.906937,286.010559 140.939865,286.816681 140.845093,288.714661 
	C137.723724,285.749756 135.195786,283.348541 132.380005,280.745117 
z"/>
<path fill="#459EC0" opacity="1.000000" stroke="none" 
	d="
M132.982544,261.902649 
	C127.294243,256.756714 121.759560,251.274353 116.068726,245.508392 
	C116.183716,243.360855 116.454865,241.496887 117.339439,239.306580 
	C123.313103,238.825790 128.673340,238.671371 134.033600,238.516937 
	C134.020859,240.066574 134.008118,241.616226 133.571838,243.656647 
	C130.235352,244.147446 127.322380,244.147446 122.917854,244.147446 
	C128.049103,249.537781 132.058563,253.749680 136.068024,257.961578 
	C135.090729,259.163147 134.113434,260.364685 132.982544,261.902649 
z"/>
<path fill="#FAFBFC" opacity="1.000000" stroke="none" 
	d="
M136.352844,258.145355 
	C132.058563,253.749680 128.049103,249.537781 122.917854,244.147446 
	C127.322380,244.147446 130.235352,244.147446 133.587433,244.044754 
	C136.476730,243.942062 138.926910,243.942062 141.657822,243.942062 
	C141.657822,250.158188 141.657822,256.094696 141.657822,262.031250 
	C141.148132,262.445465 140.638458,262.859711 140.128769,263.273956 
	C138.965073,261.625671 137.801361,259.977386 136.352844,258.145355 
z"/>
<path fill="#FAFBFC" opacity="1.000000" stroke="none" 
	d="
M148.134735,247.572845 
	C153.762268,250.750565 155.764404,255.752335 154.702240,262.320312 
	C154.045883,266.379059 154.096283,270.552094 153.418152,274.808105 
	C146.798141,270.442627 146.713959,264.120544 147.606506,257.387756 
	C148.016129,254.297745 147.919769,251.140686 148.134735,247.572845 
z"/>
<path fill="#FAFBFC" opacity="1.000000" stroke="none" 
	d="
M134.407166,238.465698 
	C128.673340,238.671371 123.313103,238.825790 117.494339,238.936707 
	C115.193382,236.835800 113.350945,234.778397 111.054428,232.213943 
	C112.862793,232.085419 114.085487,231.998520 115.678314,231.828506 
	C121.683357,231.835388 127.318283,231.925385 133.398254,232.138184 
	C135.424164,234.007126 137.005035,235.753265 138.947556,237.898865 
	C137.196198,238.115570 135.988464,238.265015 134.407166,238.465698 
z"/>
<path fill="#FAFBFC" opacity="1.000000" stroke="none" 
	d="
M151.588715,230.849182 
	C154.076309,230.715652 155.479126,231.081833 155.284378,233.767746 
	C155.032471,237.242020 155.222946,240.748352 155.222946,245.552612 
	C152.255798,242.719315 150.081375,240.642990 147.608856,238.372223 
	C144.769135,236.781036 142.227524,235.384277 139.685913,233.987503 
	C140.382935,232.974213 141.079971,231.960922 141.776993,230.947632 
	C144.899994,230.947632 148.022980,230.947632 151.588715,230.849182 
z"/>
</svg>